<?xml version="1.0" encoding="UTF-8" standalone="no"?>

<svg
   id="logo-1"
   width="48"
   height="48"
   viewBox="0 0 48 48"
   xmlns="http://www.w3.org/2000/svg">
   <path
       style="display:inline;fill:#f7f7e5;fill-opacity:0.996078;fill-rule:evenodd;stroke-width:10"
       d="m 20.678501,17.988165 2.343195,-0.110453 -0.536489,3.424063 3.313609,-0.852071 1.104537,-2.177515 1.893491,0.17357 -0.426036,2.824458 2.60355,-1.088758 2.382643,0.725838 0.804734,0.504931 2.524655,-1.593688 3.786982,0.284024 -1.404339,4.323471 1.625246,-1.372781 0.631164,0.773175 -1.925049,3.171598 1.21499,4.276134 -0.962525,1.956608 -2.682446,1.499013 -2.303747,-0.394477 -1.088757,-0.142012 -1.088758,0.836292 -1.420118,2.351085 -2.035503,0.599605 -1.656805,-0.583826 -0.06312,-1.435897 1.136095,-1.420119 -3.203156,0.599606 -1.104537,-0.457594 -0.852071,-1.783037 -1.278106,0.725838 -2.051282,1.767258 -2.319527,-0.299803 -1.467455,-2.477317 -1.956608,3.550296 -1.546351,-0.299803 -0.09467,-1.309665 -0.126233,-2.903353 -1.309665,-1.057199 0.473373,-2.635108 c 0,0 2.60355,-0.773176 2.682446,-0.773176 0.07889,0 3.076923,-0.962524 3.076923,-0.962524 z"
   />
   <path
       style="fill:#76ad6e;fill-opacity:0.996078;fill-rule:evenodd;stroke-width:10"
       d="M 8.7258381,5.7593687 13.425,6.9654196 l 3.667381,2.7097301 1.542727,2.0487163 0.473373,2.098619 1.90927,-1.704142 1.672584,-0.378698 4.812623,0.142012 -0.583826,2.114398 -1.388561,2.193294 -2.903353,1.451676 -3.897435,0.69428 -0.142012,4.402367 -0.962525,2.60355 -1.751479,-0.157791 1.21499,-3.045364 -7.053254,1.704142 L 7.8106507,23.163708 4.5285995,22.848126 5.2859959,20.33925 7.9526626,17.641025 11.439842,16.015779 10.366864,13.617357 8.6469426,10.745562 8.9467454,9.3254436 8.4575935,6.8796843 Z"
   />
    <path
       style="display:inline;fill:#2c6e40;fill-opacity:1;stroke-width:0.075"
       d="M 27.960995,38.480542 C 27.45502,38.2827 27.117118,38.05757 26.909664,37.780086 26.3831,37.075771 26.364613,36.214955 26.859298,35.434918 c 0.12186,-0.192155 0.194934,-0.336167 0.162384,-0.320029 -1.066884,0.528984 -1.094184,0.537761 -1.667349,0.536065 -1.262251,-0.0037 -2.069909,-0.751873 -2.12206,-1.965676 -0.01087,-0.253118 -0.04005,-0.460229 -0.06483,-0.460247 -0.242951,-1.49e-4 -0.509364,0.194686 -0.644352,0.47128 -0.433504,0.888263 -1.214972,1.644836 -2.162273,2.093393 -0.497755,0.235692 -0.565445,0.247796 -1.385816,0.247796 -0.791333,0 -0.89753,-0.0172 -1.287041,-0.208484 -0.752608,-0.369591 -1.283492,-1.149793 -1.396171,-2.051853 -0.09262,-0.741509 -0.226775,-0.58834 -0.633086,0.722837 -0.457991,1.477951 -0.615143,1.783717 -1.040643,2.024755 -0.284639,0.161242 -0.424329,0.187289 -1.005559,0.1875 -0.809247,3e-4 -1.276333,-0.153341 -1.605306,-0.52802 -0.405076,-0.461356 -0.388582,-0.928358 0.07759,-2.196893 l 0.22974,-0.625158 -0.165529,-0.154214 C 11.934377,33.00802 11.775,32.621111 11.775,32.30004 c 0,-0.228145 -0.03717,-0.273905 -0.355558,-0.437754 -0.723801,-0.372481 -1.129176,-1.226324 -1.039633,-2.189778 0.04806,-0.517146 0.336537,-1.309715 0.537365,-1.476387 0.07981,-0.06624 0.0762,-0.138414 -0.01975,-0.394839 -0.07176,-0.191774 -0.131481,-0.66654 -0.153591,-1.221014 -0.03923,-0.983869 0.05351,-1.48796 0.373537,-2.030364 0.135915,-0.23036 0.142713,-0.269822 0.03967,-0.23028 -0.764501,0.293367 -2.6033435,0.398331 -2.9539332,0.168617 C 8.028288,24.373696 8.011458,24.325046 8.0498235,24.045143 c 0.023703,-0.172933 0.06332,-0.367128 0.088039,-0.431542 0.039412,-0.102707 -0.0086,-0.108321 -0.3902101,-0.04563 C 7.1700918,23.662851 4.9506315,23.584651 4.4036066,23.45015 3.640003,23.262396 3.4902386,22.971019 3.7569143,22.191967 4.3324464,20.510635 5.6438154,18.817171 7.1268167,17.840172 7.3096139,17.719746 7.3103063,17.715404 7.1713651,17.560844 7.039826,17.414518 7.0384606,17.391282 7.1512826,17.219094 7.4147437,16.817002 9.6653745,15.675 10.194348,15.675 c 0.210944,0 0.200705,-0.03203 -0.139558,-0.436544 C 9.578571,14.672309 9.5045115,14.312078 9.845979,14.222782 l 0.160602,-0.042 L 9.8514803,14.00914 C 8.874804,12.928307 8.0667548,11.573646 7.8674287,10.682962 7.7856068,10.317344 7.790205,10.260134 7.912251,10.125275 7.990014,10.039348 8.143362,9.975 8.2703715,9.975 c 0.2512327,0 0.254334,0.041422 -0.058959,-0.7875 C 7.866162,8.2740217 7.710906,7.3467918 7.7382172,6.3614568 7.7591827,5.6051022 7.784409,5.4565236 7.922859,5.2739568 8.0761147,5.0718659 8.1076733,5.0633447 8.635359,5.0815718 9.8503462,5.1235393 11.150815,5.4986173 12.54375,6.2088203 12.574688,6.2245942 12.6,6.1892933 12.6,6.1303741 12.6,5.9630955 12.853457,5.775 13.078862,5.775 c 0.721711,0 2.620862,1.4516672 3.452522,2.6390272 l 0.115562,0.1649888 0.175111,-0.164508 c 0.259989,-0.2442465 0.447592,-0.203832 0.792932,0.1708185 0.896324,0.9723968 1.660011,2.7386045 1.660011,3.8391705 0,0.220276 0.02121,0.400503 0.04713,0.400503 0.02592,0 0.273548,-0.213591 0.550281,-0.474647 0.276733,-0.261056 0.704542,-0.596985 0.950686,-0.74651 0.522644,-0.31749 1.694808,-0.728843 2.076861,-0.728843 0.232888,0 0.276441,0.03072 0.356174,0.251216 l 0.09084,0.251216 0.457763,-0.146115 c 1.24655,-0.39789 3.859499,-0.132499 4.380529,0.444921 0.136056,0.15078 0.16203,0.241374 0.122244,0.426362 -0.164667,0.765603 -0.858305,1.991821 -1.443796,2.552347 l -0.305471,0.292448 0.183378,0.144246 c 0.302202,0.237711 0.23868,0.463289 -0.28537,1.01342 -0.569297,0.597629 -1.340666,1.117111 -2.094002,1.410212 l -0.56197,0.218647 0.03271,0.340466 c 0.02724,0.283482 -0.0324,0.497177 -0.356311,1.27679 -0.213964,0.514978 -0.434286,1.029136 -0.489605,1.142574 -0.05532,0.113437 -0.08745,0.20625 -0.07141,0.20625 0.01604,0 0.241269,-0.115139 0.500502,-0.255864 0.557854,-0.302833 1.20813,-0.450232 1.695067,-0.384224 l 0.351265,0.04762 0.253473,-0.772514 c 0.427086,-1.301639 0.614603,-1.54923 1.291523,-1.705274 0.505106,-0.116438 1.334852,-0.08889 1.715442,0.05696 0.772191,0.295916 0.864988,0.916352 0.349397,2.336057 -0.180216,0.496232 -0.318785,0.902241 -0.307932,0.902241 0.01085,0 0.13299,-0.106522 0.271415,-0.236715 0.385492,-0.362568 0.968257,-0.712058 1.497689,-0.89818 0.683375,-0.24024 1.676387,-0.239418 2.219127,0.0018 0.356834,0.158617 0.981684,0.729528 1.184866,1.082584 0.06569,0.114142 0.138103,0.06972 0.583231,-0.357736 0.923177,-0.886535 2.122404,-1.290338 3.298019,-1.110507 0.344795,0.05274 0.667239,0.05886 0.88125,0.01671 0.529873,-0.104346 1.435777,-0.08398 1.859318,0.0418 0.428703,0.127311 0.712729,0.425369 0.800654,0.84021 0.06249,0.294817 -0.0911,0.855695 -0.449922,1.643083 -0.143027,0.313853 -0.26005,0.583304 -0.26005,0.598779 0,0.01547 0.06918,0.02814 0.153725,0.02814 0.523931,0 1.123365,0.718278 1.120325,1.342442 -0.0023,0.464518 -0.787569,1.704668 -1.579823,2.494842 l -0.576297,0.574783 0.282017,0.275382 c 0.155109,0.15146 0.377972,0.465034 0.495251,0.696832 0.180668,0.357085 0.217719,0.533102 0.242598,1.152519 0.01615,0.402089 -0.0054,0.830735 -0.04784,0.952547 -0.06762,0.193972 -0.05351,0.243317 0.113586,0.397316 0.40564,0.373841 0.503621,0.982507 0.248601,1.544322 -0.633142,1.394824 -2.305802,2.785924 -3.762775,3.129385 -1.100295,0.259378 -2.366737,0.07192 -2.956131,-0.437575 l -0.294805,-0.254839 -0.302153,0.207887 c -0.166185,0.114339 -0.424143,0.258858 -0.57324,0.321155 -0.225078,0.09404 -0.292395,0.177424 -0.396645,0.491294 -0.17679,0.532263 -0.808494,1.55717 -1.226086,1.989262 -0.45507,0.47087 -1.003356,0.824718 -1.577696,1.018199 -0.596949,0.201098 -1.550708,0.205649 -2.051613,0.0098 z m 2.000837,-1.085327 c 0.791088,-0.366887 1.469324,-1.200143 1.953955,-2.400559 0.239192,-0.59247 0.239639,-0.592978 0.706819,-0.805047 0.489991,-0.222425 1.289251,-0.759889 1.532768,-1.030713 0.175298,-0.194956 0.269626,-0.202791 0.269626,-0.0224 0,0.215912 0.488573,0.729859 0.859632,0.904276 0.451551,0.212255 1.335851,0.217534 2.001218,0.01195 0.862902,-0.266621 1.725386,-0.879097 2.388016,-1.695803 0.449179,-0.553623 0.617335,-0.911511 0.516662,-1.099619 -0.12835,-0.239825 -0.331888,-0.140692 -0.729258,0.355184 -0.486683,0.607329 -1.020497,1.035501 -1.696654,1.360887 -0.424444,0.204255 -0.612617,0.251627 -0.999519,0.251627 -0.426807,0 -0.499554,-0.02292 -0.695866,-0.219231 C 35.930237,32.866775 35.85,32.708875 35.85,32.57434 c 0,-0.202787 0.02506,-0.217894 0.564906,-0.340587 1.253758,-0.284944 2.317507,-1.072822 2.650654,-1.963237 0.195157,-0.521606 0.19773,-0.741421 0.01343,-1.147366 -0.24938,-0.54929 -0.902106,-0.76723 -1.756258,-0.5864 -1.352628,0.286361 -2.615024,1.646337 -2.907412,3.132148 -0.07728,0.392699 -0.129628,0.473434 -0.583571,0.9 -0.274273,0.257731 -0.67495,0.563565 -0.890394,0.679632 l -0.391717,0.211029 0.201574,-0.548529 c 0.110865,-0.301692 0.494584,-1.32478 0.852708,-2.27353 0.358123,-0.94875 0.636755,-1.750313 0.619181,-1.78125 -0.03919,-0.06898 -1.161561,-0.07516 -1.338232,-0.0074 -0.07007,0.02689 -0.187655,0.18347 -0.261299,0.347961 l -0.133899,0.299073 -0.114666,-0.221739 c -0.166746,-0.322451 -0.611618,-0.500414 -1.153035,-0.461251 -1.26014,0.09115 -2.719151,1.416808 -3.25389,2.956484 -0.112104,0.322781 -0.26951,0.562609 -0.579733,0.883302 -0.723209,0.747614 -1.287826,1.031517 -1.512664,0.760604 -0.207795,-0.250377 0.099,-0.975092 1.048092,-2.475822 0.339136,-0.53625 0.617368,-1.045686 0.618293,-1.132081 0.0025,-0.230412 -0.217845,-0.527188 -0.468405,-0.630973 -0.199703,-0.08272 -0.245021,-0.07014 -0.51369,0.142656 -0.54516,0.431774 -1.217858,0.644682 -1.490265,0.471665 -0.0687,-0.04363 -0.07357,-0.125966 -0.01875,-0.317106 0.116684,-0.406854 0.08851,-0.652206 -0.09471,-0.824631 -0.243733,-0.229382 -0.623037,-0.153816 -0.9375,0.186769 -0.204364,0.22134 -0.24375,0.322073 -0.24375,0.623412 0,0.204468 0.05052,0.431534 0.117176,0.526706 0.108427,0.154801 0.104748,0.185449 -0.04926,0.410437 -0.408344,0.59653 -0.94955,1.046322 -1.42201,1.181821 -0.200785,0.05758 -0.227716,0.04976 -0.187699,-0.05452 0.107376,-0.279818 0.131807,-0.986421 0.04337,-1.254385 -0.318515,-0.965109 -1.500033,-1.279694 -2.69095,-0.716479 -1.389264,0.657018 -2.559171,2.837682 -2.263536,4.219146 0.266677,1.246142 1.549512,1.678116 2.876859,0.968737 0.514855,-0.275156 1.187722,-1.027111 1.519148,-1.697705 0.227642,-0.460603 0.311976,-0.565968 0.452997,-0.565968 0.627419,0 1.608178,-0.701777 2.128908,-1.523329 0.23228,-0.366466 0.284086,-0.408389 0.45,-0.364157 0.103125,0.02749 0.364642,0.04463 0.581149,0.03808 0.287819,-0.0087 0.378553,0.01207 0.3375,0.07728 -0.03088,0.04905 -0.27108,0.404995 -0.533774,0.790981 -0.607629,0.892816 -0.839711,1.402619 -0.889752,1.954481 -0.05236,0.577392 0.135919,0.909286 0.62088,1.094494 0.696126,0.265853 1.610387,-0.068 2.489613,-0.909096 C 27.832318,33.177694 27.9,33.145403 27.9,33.373997 c 0,0.219897 0.509981,0.732857 0.862414,0.867453 0.60602,0.231441 1.479501,-0.01923 2.139868,-0.614091 0.17698,-0.159424 0.30793,-0.255954 0.291,-0.214511 -0.01693,0.04144 -0.09275,0.231115 -0.168495,0.421492 -0.135153,0.339706 -0.149093,0.349874 -0.75,0.547007 -1.779016,0.583627 -2.749787,1.375477 -2.749787,2.242983 0,0.279916 0.252913,0.65401 0.55184,0.816247 0.46032,0.249831 1.291625,0.229825 1.884992,-0.04536 z M 28.775,36.625 c -0.251255,-0.251256 0.260008,-0.881901 1.026122,-1.265728 0.636732,-0.319005 0.700653,-0.257412 0.390576,0.376361 -0.27494,0.561957 -0.708616,0.939367 -1.079414,0.939367 -0.158006,0 -0.309784,-0.0225 -0.337284,-0.05 z m -9.90314,-2.596382 c -0.334035,-0.244252 -0.189243,-1.18524 0.360233,-2.341118 0.368879,-0.775976 0.832843,-1.339543 1.203502,-1.461872 0.53667,-0.177117 0.735482,0.197496 0.441531,0.831958 -0.198459,0.428354 -0.233056,0.975769 -0.07186,1.136968 0.09036,0.09036 0.07468,0.169006 -0.110706,0.555261 -0.48788,1.016515 -1.352146,1.622882 -1.822702,1.278803 z m 10.63228,-0.918352 c -0.20267,-0.309312 -0.105389,-1.052142 0.225456,-1.721562 0.587799,-1.18933 1.575884,-1.88417 2.128716,-1.496952 0.58418,0.409176 -0.487423,2.750183 -1.493958,3.263679 -0.402224,0.2052 -0.706642,0.189216 -0.860214,-0.04516 z m 6.537109,-1.845891 c 0.45084,-1.277817 1.841944,-2.417992 2.031018,-1.664661 0.157703,0.628336 -0.924163,1.729133 -1.90219,1.935475 l -0.242423,0.05115 z m -21.988214,4.364223 c 0.162413,-0.06175 0.235099,-0.22143 0.537695,-1.18125 0.192442,-0.610416 0.424917,-1.346098 0.516611,-1.634848 l 0.166717,-0.525 0.719574,-0.0375 c 0.395765,-0.02063 0.740885,-0.05897 0.766932,-0.08521 0.0926,-0.09329 0.331328,-0.797897 0.285773,-0.843453 -0.02548,-0.02548 -0.358375,-0.04634 -0.739754,-0.04634 h -0.693417 l 0.339568,-0.95625 c 0.186763,-0.525938 0.393067,-1.117577 0.458453,-1.314755 0.0845,-0.254803 0.150157,-0.346503 0.226994,-0.317019 0.05946,0.02282 0.420161,0.09678 0.801557,0.164355 1.115278,0.197613 1.535944,0.0128 1.796633,-0.789316 0.172898,-0.531994 0.121839,-0.573261 -0.571899,-0.462222 -0.41347,0.06618 -0.805087,0.06788 -1.560714,0.0068 -2.963088,-0.239605 -4.231958,-0.0062 -5.10299,0.938784 -0.399195,0.433075 -0.54698,0.786485 -0.549086,1.313068 -0.0029,0.727227 0.354515,1.116578 1.025012,1.116578 0.422545,0 0.623381,-0.141295 0.507802,-0.357257 -0.134491,-0.251298 -0.09854,-0.708108 0.08425,-1.070601 0.271983,-0.539359 1.128061,-1.020497 1.704088,-0.957741 l 0.212014,0.0231 -0.367009,1.0875 c -0.201856,0.598125 -0.420614,1.230937 -0.48613,1.40625 l -0.119119,0.31875 -0.425047,0.0011 c -0.233776,6e-4 -0.466241,0.02732 -0.516589,0.05931 -0.12268,0.07795 -0.33548,0.693517 -0.285116,0.824763 0.03142,0.08188 0.139463,0.09286 0.500965,0.05091 0.42993,-0.0499 0.457296,-0.04409 0.407207,0.08644 -0.320442,0.835048 -0.94523,2.794181 -0.928309,2.910875 0.01199,0.08267 0.10617,0.192837 0.209295,0.244824 0.222343,0.112086 0.813327,0.125973 1.078035,0.02533 z m 5.169072,-8.860231 c 0.15433,-0.07032 0.263581,-0.270087 0.545188,-0.996903 0.718861,-1.855342 1.618319,-4.106085 2.278263,-5.700973 0.373693,-0.903105 0.679442,-1.707572 0.679442,-1.787704 0,-0.137246 -0.04981,-0.144234 -0.858951,-0.120491 -0.476311,0.01398 -0.8947,0.06104 -0.9392,0.105655 -0.06919,0.06936 -2.987403,7.747216 -3.152099,8.29321 -0.09671,0.320613 0.03387,0.385026 0.68355,0.337182 0.31394,-0.02312 0.657653,-0.08161 0.763807,-0.129976 z m 4.28609,-0.149251 c 0.183696,-0.09174 0.499524,-0.33147 0.701841,-0.532729 l 0.36785,-0.365927 0.132184,0.34612 c 0.229292,0.600392 0.796009,0.782332 1.593557,0.511598 0.463487,-0.157334 0.899341,-0.4603 1.400184,-0.973283 l 0.401726,-0.411462 0.0842,0.334403 c 0.113138,0.449313 0.376732,0.742761 0.85013,0.946411 0.344552,0.148222 0.481968,0.164593 1.107981,0.132 1.062443,-0.05532 1.738898,-0.372046 2.751284,-1.288202 l 0.459573,-0.41589 0.05191,0.276684 c 0.160911,0.857727 0.84895,1.382988 1.653531,1.262334 0.426837,-0.06401 1.111213,-0.411867 1.535852,-0.780651 l 0.3375,-0.293108 0.1125,0.302313 c 0.150796,0.405224 0.427199,0.597513 0.91564,0.636997 0.86171,0.06966 1.677629,-0.475096 2.457197,-1.640563 0.459826,-0.687448 0.522707,-0.865617 0.362163,-1.026161 -0.163825,-0.163825 -0.274022,-0.09476 -0.61803,0.387321 -0.41508,0.581682 -0.937637,1.07491 -1.211707,1.143697 -0.254821,0.06396 -0.434088,-0.141888 -0.366656,-0.421018 0.02491,-0.103125 0.410098,-1.09875 0.855967,-2.2125 0.445869,-1.11375 0.796248,-2.050312 0.778622,-2.08125 C 40.205569,20.425312 39.890704,20.4 39.523495,20.4 c -0.589097,0 -0.685543,0.01921 -0.819716,0.163222 -0.08363,0.08977 -0.171974,0.225954 -0.196309,0.302628 -0.04045,0.127452 -0.05717,0.122973 -0.194981,-0.05222 -0.327308,-0.416106 -0.940969,-0.560459 -1.631032,-0.383673 -1.257569,0.322175 -2.123952,1.140009 -2.859411,2.699181 -0.324447,0.687825 -0.431919,0.836604 -0.969973,1.342766 -0.661736,0.622514 -1.424258,1.059742 -1.99831,1.145826 -0.614856,0.0922 -1.150431,-0.184311 -1.266991,-0.65414 -0.05342,-0.215323 -0.07064,-0.207001 0.675728,-0.326521 0.423642,-0.06784 1.282792,-0.498324 1.725,-0.864322 1.21102,-1.002317 1.435402,-2.551881 0.440104,-3.039332 -0.394588,-0.193252 -1.128411,-0.176789 -1.694462,0.03801 -1.116652,0.423744 -2.160167,1.644147 -2.561345,2.995522 -0.135063,0.454961 -0.595337,1.095285 -1.041065,1.448309 -0.219588,0.173916 -0.378572,0.237055 -0.607802,0.241381 l -0.31043,0.0059 0.0055,-0.3375 c 0.0052,-0.32004 0.412195,-1.466883 1.887501,-5.318823 0.398454,-1.040339 0.408804,-1.085374 0.273076,-1.188211 -0.176488,-0.133721 -1.203216,-0.07951 -1.341793,0.07084 -0.05003,0.05428 -0.302703,0.672442 -0.561499,1.373692 -0.258797,0.70125 -0.485386,1.301184 -0.503533,1.333186 -0.01815,0.032 -0.132707,-0.02572 -0.254579,-0.128266 -0.614637,-0.517184 -1.74797,-0.267046 -2.673835,0.590142 -1.129036,1.045288 -1.891114,2.831812 -1.667482,3.909043 0.100645,0.484806 0.396464,0.868745 0.76555,0.993598 0.350183,0.118459 0.976571,0.0538 1.366795,-0.141087 z M 23.11645,25.68308 c -0.633356,-0.44362 0.577999,-3.169578 1.65196,-3.717472 0.298106,-0.152082 0.305224,-0.15225 0.49355,-0.01164 0.427126,0.318896 0.382235,0.692657 -0.232231,1.933537 -0.690881,1.395193 -1.457602,2.114749 -1.913279,1.79558 z m 12.02656,-0.508251 c -0.338917,-0.338918 -0.221031,-1.065994 0.354649,-2.187329 0.396094,-0.771529 1.16501,-1.57525 1.581847,-1.653448 0.555209,-0.104158 0.851293,0.22845 0.758217,0.851747 -0.124788,0.835649 -1.034408,2.413903 -1.643241,2.851133 -0.48005,0.344746 -0.802354,0.387014 -1.051472,0.137897 z M 29.736895,23.75625 c 0.111642,-0.40082 0.654747,-1.404039 0.928389,-1.714912 0.163682,-0.185952 0.435651,-0.400345 0.604374,-0.476429 0.892315,-0.402378 0.92918,0.657788 0.05415,1.557286 -0.359604,0.36966 -1.147149,0.802639 -1.460113,0.802746 -0.144177,4.9e-5 -0.165792,-0.02871 -0.126801,-0.168691 z M 17.39201,24.722127 c 0.138288,-0.166625 0.437252,-1.115382 0.599657,-1.902998 0.233586,-1.132815 0.326019,-2.272704 0.269301,-3.321029 -0.05979,-1.105063 0.01244,-1.474282 0.342778,-1.752243 0.317746,-0.267366 0.630565,-0.337729 1.871254,-0.420907 1.772376,-0.118824 2.535985,-0.28768 3.5625,-0.787773 0.37125,-0.180864 0.876448,-0.488885 1.122663,-0.684489 l 0.447664,-0.355646 -0.21156,-0.05658 c -0.116357,-0.03112 -0.397459,-0.07981 -0.62467,-0.108194 l -0.413111,-0.05161 0.351533,-0.178197 c 1.037553,-0.525953 1.93455,-1.486764 2.418781,-2.590859 0.08721,-0.198854 0.08414,-0.201817 -0.301594,-0.290658 -0.214339,-0.04937 -0.783278,-0.106451 -1.26431,-0.126855 -1.28764,-0.05462 -2.154339,0.159994 -3.106878,0.769326 -0.232321,0.148614 -0.43336,0.259248 -0.446754,0.245853 -0.0134,-0.01339 0.04861,-0.232636 0.137795,-0.487204 0.08918,-0.254569 0.135415,-0.489584 0.102743,-0.522257 -0.101201,-0.101202 -1.3081,0.570981 -1.749468,0.974367 -0.689665,0.630315 -1.058805,1.241235 -1.789177,2.961058 -0.370511,0.872453 -0.691816,1.587065 -0.714011,1.588026 -0.02219,9.6e-4 -0.09569,-0.261451 -0.163315,-0.583137 -0.122931,-0.584743 -0.122908,-0.585126 0.09867,-1.59375 0.416714,-1.896884 0.373976,-3.545755 -0.120097,-4.633485 -0.200301,-0.440973 -0.641091,-1.1374828 -0.720023,-1.1377363 -0.02482,-7.5e-5 -0.103863,0.2276678 -0.175664,0.5061053 -0.0718,0.278437 -0.183493,0.674755 -0.248206,0.880706 L 16.550851,11.43641 16.42199,10.986955 C 15.968455,9.405066 15.096264,8.1377445 13.868315,7.2763876 L 13.425,6.9654196 v 0.8380409 0.838041 L 13.091875,8.1889838 C 12.559252,7.4654653 11.815375,6.9746663 10.65,6.5778705 10.152736,6.4085582 9.0669232,6.15 8.853162,6.15 c -0.112341,0 -0.097299,0.8275957 0.02798,1.5394372 0.2116417,1.2025553 0.6627765,2.2494008 1.256392,2.9154238 0.423644,0.475318 0.445551,0.459189 -0.4834195,0.355924 -0.2796128,-0.03108 -0.5222805,-0.04262 -0.5392613,-0.02564 -0.064867,0.06487 0.344694,0.866648 0.7200623,1.409637 0.5743345,0.830805 1.4867035,1.616623 2.5775855,2.220061 l 0.375,0.207437 -0.775,0.0014 c -0.582295,10e-4 -0.767303,0.02445 -0.744043,0.09423 0.06718,0.201535 1.220319,0.724558 2.041478,0.925939 1.444929,0.354356 2.311143,0.634904 2.890064,0.936033 0.792169,0.412051 1.638514,1.175696 1.439401,1.298754 -0.03355,0.02074 -0.463956,-0.150027 -0.956452,-0.379474 C 15.63637,17.161538 14.517101,16.78198 13.725,16.646048 c -0.919069,-0.157722 -2.31136,-0.112066 -3.15,0.103295 -0.7640497,0.196205 -1.9065225,0.643501 -1.8337117,0.717927 0.024337,0.02488 0.2528152,0.115966 0.5077297,0.202421 L 9.7125,17.826883 9.266421,17.957347 c -1.3000125,0.380215 -2.7107636,1.486587 -3.6636027,2.873156 -0.398578,0.580009 -0.8409879,1.511617 -0.7570438,1.59415 0.036699,0.03608 0.4226815,0.105402 0.8577389,0.154044 1.2382254,0.138442 2.7109143,-0.0695 3.9527366,-0.558113 0.2578125,-0.101441 0.46875,-0.175821 0.46875,-0.16529 0,0.01053 -0.1891613,0.381361 -0.4203585,0.824068 -0.2311972,0.442706 -0.4076265,0.817653 -0.3920647,0.833215 0.059044,0.05904 1.4709702,-0.256281 1.9384052,-0.432903 0.996577,-0.376563 1.688472,-0.783988 2.305268,-1.357467 L 13.8,21.495575 13.7967,21.716537 c -0.0018,0.12153 -0.03102,0.364401 -0.06493,0.539713 -0.0914,0.472444 0.06205,0.418168 0.742115,-0.2625 0.498538,-0.498978 0.636381,-0.698023 0.973863,-1.40625 0.776262,-1.629034 0.856218,-1.771245 1.139977,-2.027605 0.368376,-0.332805 0.725707,-0.356064 0.956798,-0.06228 0.136139,0.173072 0.155443,0.301422 0.155443,1.033489 0,0.924736 -0.168409,2.46091 -0.346032,3.156396 -0.06321,0.2475 -0.247462,0.761876 -0.409447,1.143059 -0.161987,0.381183 -0.294521,0.74152 -0.294521,0.800751 0,0.188373 0.600091,0.26182 0.74201,0.09082 z M 12.375,21.059968 c 0,-0.119532 0.616583,-1.364903 0.890481,-1.79859 0.170236,-0.269548 0.309519,-0.509319 0.309519,-0.532823 0,-0.02351 -0.295312,0.03749 -0.65625,0.135547 -1.440836,0.39143 -4.0046542,1.341007 -5.0662185,1.876405 -0.7072233,0.356688 -0.5669609,0.207289 0.2797275,-0.297948 1.5009878,-0.895671 3.758026,-1.893485 5.195273,-2.296777 1.169465,-0.328152 2.606576,-0.468161 3.055085,-0.297638 0.315507,0.119955 0.224085,0.187996 -0.382218,0.284463 -0.884804,0.140778 -1.409239,0.311637 -1.705106,0.555515 -0.148591,0.122482 -0.612319,0.684322 -1.030508,1.248535 C 12.453845,21.030766 12.375,21.130303 12.375,21.059968 Z M 18.6,17.267285 c 0,-0.214664 0.954549,-1.393832 1.524937,-1.883777 0.949272,-0.815395 2.3844,-1.574605 3.925012,-2.076406 0.563042,-0.183392 1.033491,-0.323661 1.045442,-0.31171 0.01195,0.01195 -0.504412,0.290288 -1.147475,0.618526 -0.953588,0.486741 -2.970231,1.687111 -3.188106,1.897663 -0.02898,0.02801 0.325395,0.0394 0.7875,0.02533 0.462104,-0.01407 0.823315,-0.0096 0.80269,0.0099 -0.02063,0.01953 -0.394727,0.122664 -0.831338,0.229183 -1.053449,0.257008 -1.350865,0.393469 -2.099623,0.963359 C 18.670627,17.309004 18.6,17.354527 18.6,17.267285 Z M 17.093397,16.619302 C 15.895856,14.896211 15.463669,14.371474 14.942502,14.0078 14.74916,13.872885 14.050191,13.48544 13.389236,13.146812 c -0.660954,-0.338628 -1.179088,-0.617065 -1.151408,-0.61875 0.270697,-0.01647 2.114063,0.536475 2.270922,0.6812 0.485091,0.447563 -0.74353,-1.2193 -2.853822,-3.871762 C 10.480545,7.861398 10.353534,7.6699913 10.770815,8.0051393 11.451871,8.552142 13.500293,10.767332 14.55,12.091999 c 0.185625,0.234247 0.354375,0.427547 0.375,0.429555 0.02062,0.002 0.02562,-0.187569 0.01109,-0.421282 -0.01452,-0.233713 -0.0011,-0.680947 0.02978,-0.993853 l 0.05619,-0.568919 0.09303,0.375 c 0.05117,0.20625 0.181155,0.78 0.288861,1.275 0.287739,1.322409 0.306263,1.372386 0.765211,2.064555 0.485576,0.732328 0.839937,1.413286 1.079154,2.073752 0.226653,0.625777 0.161626,0.748966 -0.154925,0.293495 z"
   />
</svg>
