<?xml version="1.0" encoding="UTF-8" standalone="no"?>

<svg
   id="upvote-1"
   width="48"
   height="48"
   viewBox="0 0 48 48"
   xmlns="http://www.w3.org/2000/svg">
   <rect
      style="display:inline;fill:#fef4d3;fill-opacity:0.996078;fill-rule:evenodd;stroke-width:10"
      width="39.200001"
      height="14.4"
      x="3.4000001"
      y="19.4"
      ry="5.6000004"
   />
   <path
      style="display:inline;fill:#efbc54;fill-opacity:0.996078;fill-rule:evenodd;stroke-width:10"
      d="m 29.2,12.6 0.6,3.4 h -0.6 l 1.4,2.4 -0.6,0.2 1,1 3,1.2 2.2,-0.2 1.2,2 1.4,1 2.4,0.4 0.6,-0.4 H 43 v -0.8 l 2.2,-0.4 -1.4,-2.2 -1.6,-1.6 -1.6,-0.4 1.8,-3.6 -0.8,-0.2 1,-3 -3.8,1.4 -1.8,1 -1.6,2.6 L 34,14.6 H 33.2 L 31.6,13.4 H 31 Z"
   />
    <path
      style="display:inline;fill:#cd8e2d;fill-opacity:0.996078;stroke-width:0.075"
      d="M 7.8623145,34.048897 C 6.650164,33.842155 5.8110765,33.411781 4.9426573,32.551385 3.9970906,31.614554 3.4951408,30.653384 3.2472193,29.304838 3.1476653,28.763323 3.1192589,28.155025 3.1168224,26.5125 c -0.00341,-2.29619 0.05199,-2.825005 0.4027406,-3.844591 0.6016613,-1.74895 1.9654505,-3.013906 3.8706415,-3.590138 0.4206915,-0.127239 1.09776,-0.136664 11.3835865,-0.158461 l 10.93629,-0.02318 -0.19254,-0.228821 C 29.411644,18.541461 29.325,18.406495 29.325,18.367389 29.325,18.270718 29.660811,18.15 29.929727,18.15 h 0.219962 l -0.345435,-0.46875 c -0.364757,-0.494968 -0.681508,-1.077714 -0.934061,-1.718445 -0.17724,-0.449663 -0.120008,-0.535177 0.283598,-0.423736 0.143151,0.03953 0.272409,0.05973 0.287241,0.0449 0.01483,-0.01483 -0.05342,-0.248434 -0.151674,-0.519116 -0.09825,-0.270682 -0.215375,-0.694727 -0.260273,-0.942321 -0.107521,-0.592949 -0.113974,-1.742642 -0.01036,-1.846256 0.102064,-0.102064 1.111857,0.297654 1.794635,0.710393 0.446103,0.269669 0.478306,0.278299 0.514997,0.137995 0.02153,-0.08231 0.08059,-0.149663 0.131263,-0.149663 0.170194,0 1.040482,0.611637 1.505086,1.057772 0.466761,0.448208 0.560294,0.477149 0.560294,0.173362 0,-0.267601 0.07962,-0.406134 0.233407,-0.406134 0.196384,0 0.813241,0.858511 1.16811,1.625714 0.15729,0.340053 0.305953,0.61963 0.330361,0.621282 0.02441,0.0017 0.08264,-0.123559 0.1294,-0.278246 0.224865,-0.743853 1.429189,-2.337607 1.9954,-2.640634 0.169159,-0.09053 0.209718,-0.08653 0.342735,0.03385 0.147797,0.133754 0.16046,0.127327 0.621689,-0.315568 0.795847,-0.764212 1.56404,-1.177686 1.670858,-0.899325 0.02725,0.07101 0.192782,0.02041 0.616395,-0.188386 0.646707,-0.318764 1.683989,-0.605886 2.058605,-0.569826 l 0.24554,0.02364 -0.02113,0.4125 c -0.03062,0.597753 -0.282473,1.452565 -0.614843,2.086858 -0.265648,0.506961 -0.276095,0.54849 -0.126766,0.503909 0.407582,-0.121679 0.725242,-0.135649 0.725204,-0.03189 -1.49e-4,0.334694 -0.710286,1.824918 -1.140602,2.393463 -0.32518,0.429637 -0.331384,0.445825 -0.15311,0.399549 0.07219,-0.01874 0.192479,0.01086 0.267315,0.06579 0.130775,0.09597 0.130206,0.107304 -0.01463,0.291439 -0.08288,0.105371 -0.320431,0.306739 -0.52788,0.447486 -0.416523,0.282594 -0.465424,0.367751 -0.2123,0.369704 0.280793,0.0022 1.117031,0.199755 1.575,0.372144 0.319766,0.120367 0.43125,0.199715 0.43125,0.306943 0,0.07954 -0.03375,0.144611 -0.075,0.144611 -0.167316,0 -0.05676,0.146458 0.24375,0.322899 0.43485,0.255319 1.08014,0.788582 1.228808,1.015476 0.1134,0.173071 0.113121,0.193329 -0.0038,0.278854 -0.11296,0.0826 -0.07028,0.16154 0.408894,0.756248 0.615228,0.763571 0.871233,1.207679 0.760181,1.318732 -0.133735,0.133734 -0.934325,0.285876 -1.754538,0.333426 l -0.804248,0.04663 0.222998,0.253979 c 0.122648,0.139689 0.222997,0.279805 0.222997,0.31137 0,0.135017 -0.199909,0.23739 -0.463566,0.23739 h -0.283565 l 0.05481,0.35625 c 0.03015,0.195937 0.052,1.385625 0.04857,2.64375 -0.0072,2.640925 -0.05586,2.939944 -0.683183,4.2 -0.295749,0.594044 -0.46743,0.825221 -1.032645,1.390504 -0.766046,0.766141 -1.48561,1.193337 -2.493918,1.48061 L 38.1375,34.0875 23.175,34.098061 c -8.229375,0.0058 -15.1200833,-0.01631 -15.3126855,-0.04916 z M 38.498546,33.170592 c 1.389008,-0.395595 2.431838,-1.255325 3.08476,-2.543135 0.475625,-0.938114 0.638617,-1.976902 0.639779,-4.077457 5.25e-4,-1.009702 -0.09898,-2.534268 -0.169348,-2.593751 -0.0089,-0.0075 -0.119291,-0.03577 -0.245245,-0.06271 -0.225141,-0.04816 -0.228486,-0.04452 -0.198133,0.215478 0.02358,0.201992 -3.75e-4,0.276466 -0.10157,0.315284 -0.182042,0.06986 -0.937255,-0.09477 -1.584003,-0.345284 -0.507922,-0.196744 -0.539737,-0.200548 -0.574229,-0.06865 -0.05902,0.225692 -0.344904,0.16673 -0.97229,-0.200527 -0.810213,-0.474281 -1.544471,-1.194189 -2.134425,-2.092715 -0.272509,-0.415044 -0.518713,-0.782171 -0.54712,-0.815838 -0.06813,-0.08075 -0.643995,0.908326 -1.116396,1.917463 -0.347748,0.742853 -0.393919,0.80625 -0.587187,0.80625 -0.258303,0 -0.543555,-0.189754 -0.541932,-0.360502 0.0016,-0.165257 0.589159,-1.46064 0.8479,-1.869258 C 34.409599,21.220748 34.5,21.062791 34.5,21.044226 c 0,-0.01856 -0.109465,-0.0024 -0.243255,0.03601 -0.13379,0.03837 -0.356699,0.06976 -0.495352,0.06976 -0.296412,0 -1.779965,-0.605704 -2.768536,-1.130336 l -0.694644,-0.368645 -10.480356,-4.5e-4 c -6.542243,-3e-4 -10.7831823,0.02828 -11.2862545,0.07598 -1.3300362,0.126109 -2.3655275,0.587274 -3.1382932,1.397666 -0.7387993,0.774771 -1.1737017,1.646697 -1.3857298,2.778219 -0.1657739,0.884679 -0.1179762,4.819468 0.068122,5.607905 0.3951808,1.674253 1.5261452,2.974879 3.0795055,3.541477 0.8637437,0.315057 0.6732534,0.311517 16.057293,0.298302 l 14.7,-0.01263 0.586046,-0.166908 z m -25.030333,-1.09464 c -0.106181,-0.07764 -0.127985,-0.170848 -0.100886,-0.43125 0.04349,-0.417916 1.698092,-6.598919 1.800479,-6.725952 0.120238,-0.149183 0.907776,-0.120311 1.106446,0.04056 0.160381,0.129868 0.161897,0.143822 0.04581,0.42166 C 16.254028,25.539013 16.2,25.688356 16.2,25.712847 c 0,0.02449 0.177188,-0.12791 0.39375,-0.338669 0.517139,-0.50328 0.821553,-0.653383 1.331582,-0.656586 1.307122,-0.0082 1.659603,1.486062 0.781295,3.312139 -0.319866,0.665029 -1.035962,1.456597 -1.556214,1.720228 -0.52559,0.266337 -1.330066,0.318461 -1.723727,0.111686 -0.199044,-0.104551 -0.294993,-0.123415 -0.31605,-0.06214 -0.04337,0.126193 -0.31165,1.290036 -0.4081,1.770376 -0.04499,0.224061 -0.118724,0.451874 -0.163852,0.50625 -0.108189,0.130359 -0.892126,0.130226 -1.070471,-1.5e-4 z m 3.100573,-3.121528 C 17.458035,28.321224 18.194302,26.219303 17.7,25.725 c -0.177652,-0.177652 -0.228134,-0.18204 -0.549499,-0.04777 -0.556996,0.232728 -1.37425,1.545528 -1.673384,2.68805 -0.12625,0.482203 -0.126109,0.508895 0.0035,0.65206 0.237241,0.262147 0.666561,0.237325 1.088215,-0.06292 z M 9.2886465,29.900732 C 8.6166458,29.710436 8.2348905,29.311643 8.0934675,28.652209 7.966641,28.060838 8.0858805,27.493458 8.7766605,25.401377 9.105747,24.404713 9.375,23.49979 9.375,23.390438 c 0,-0.284336 -0.2185905,-0.512971 -0.539559,-0.564352 -0.467535,-0.07484 -0.771957,0.0289 -1.1913998,0.406014 -0.6938684,0.623848 -0.9733132,1.578768 -0.5474204,1.870649 0.4204229,0.28813 0.5645819,0.468253 0.5140199,0.64225 C 7.4803201,26.19346 7.0997666,26.254141 6.4908304,25.923558 5.7136042,25.501612 5.5170808,24.63208 5.9843999,23.682821 6.504228,22.6269 7.636464,22.056221 9.0381068,22.143667 c 1.2196552,0.07609 1.7675832,0.648707 1.6620692,1.73696 -0.04576,0.472006 -0.192734,0.959098 -0.9068725,3.005603 C 9.5632365,27.545532 9.375,28.213628 9.375,28.370889 c 0,0.881128 1.184924,0.8492 2.014482,-0.05428 0.453325,-0.493719 0.762743,-1.220436 1.135381,-2.666609 0.284796,-1.105264 0.41543,-1.604652 0.752062,-2.874975 0.07301,-0.275515 0.142778,-0.380293 0.290815,-0.43675 0.380357,-0.145057 1.088757,0.07873 0.95162,0.300626 -0.02396,0.03876 -0.264034,0.94305 -0.533509,2.009535 -0.710121,2.810394 -0.818091,3.110355 -1.430873,3.975241 -0.370808,0.523362 -0.908978,0.950759 -1.46156,1.160724 -0.494859,0.188031 -1.35564,0.243515 -1.8047715,0.116331 z M 20.4,29.836693 c -0.852167,-0.439827 -0.893589,-1.458228 -0.163661,-4.023805 0.121212,-0.426036 0.25998,-0.814161 0.308374,-0.8625 0.124041,-0.123898 0.81182,-0.100997 0.944259,0.03144 0.09434,0.09433 0.06461,0.305118 -0.231187,1.639643 -0.469699,2.119064 -0.440971,2.522237 0.168815,2.369191 0.227676,-0.05714 0.934375,-0.709471 1.224401,-1.130198 0.200439,-0.29077 0.203725,-0.310353 0.08807,-0.525001 -0.186035,-0.345284 -0.155687,-1.249594 0.05847,-1.74226 C 23.008901,25.106981 23.394158,24.75 23.70754,24.75 c 0.342657,0 0.491305,0.113997 0.633228,0.48562 0.157851,0.413326 0.110682,0.880932 -0.161544,1.601469 -0.305488,0.808572 -0.30434,0.763124 -0.01922,0.761264 0.138874,-9.08e-4 0.388152,-0.06327 0.553954,-0.138591 0.264554,-0.120179 0.317738,-0.188593 0.434452,-0.558854 0.409378,-1.298698 1.581149,-2.226511 2.810654,-2.22549 0.703556,6e-4 1.006496,0.103107 1.315581,0.445228 0.332712,0.368273 0.409509,0.797183 0.282784,1.579354 -0.142606,0.880189 -0.144479,0.859663 0.08082,0.885701 0.236375,0.02732 0.897986,-0.240933 1.074041,-0.435469 0.06764,-0.07475 0.232249,-0.457889 0.365793,-0.851432 l 0.242809,-0.715533 -0.286932,-0.04848 C 30.712251,25.480438 30.525,25.33108 30.525,25.128826 c 0,-0.225428 0.222388,-0.340983 0.667738,-0.346962 l 0.419762,-0.0056 0.15,-0.414975 c 0.222444,-0.61539 0.300704,-0.683873 0.733939,-0.642244 0.200619,0.01928 0.4195,0.08979 0.486402,0.156689 0.112188,0.112188 0.111924,0.152029 -0.0034,0.512667 -0.06877,0.215065 -0.111364,0.404707 -0.09464,0.421428 0.01672,0.01672 0.226704,0.05355 0.466631,0.08184 0.239926,0.02829 0.478382,0.07749 0.529902,0.109329 0.142768,0.08824 0.111926,0.380607 -0.0637,0.603885 -0.152567,0.193958 -0.174171,0.198551 -0.70685,0.150281 l -0.549472,-0.04979 -0.262433,0.853583 c -0.337599,1.098066 -0.44334,1.606146 -0.411785,1.978583 0.02312,0.272881 0.04608,0.302023 0.254035,0.322373 0.167655,0.01641 0.310635,-0.04359 0.536204,-0.225 0.53119,-0.427202 1.11562,-1.18635 1.258606,-1.634873 0.388923,-1.219981 1.440109,-2.092416 2.604543,-2.161651 0.699756,-0.04161 1.140941,0.169042 1.351635,0.645351 0.47376,1.071015 -0.60539,2.238863 -2.31212,2.502158 l -0.607517,0.09372 0.05263,0.233352 c 0.114964,0.509753 0.44231,0.78703 0.929177,0.78703 0.344103,0 1.031853,-0.24884 1.413194,-0.511318 0.35091,-0.241532 0.961428,-0.865708 1.099971,-1.124578 0.101338,-0.189353 0.393331,-0.21935 0.530173,-0.05447 0.157057,0.189242 -0.223605,0.881859 -0.803233,1.461487 C 37.448003,29.617514 36.589326,30 35.660079,30 34.825543,30 34.355385,29.736658 34.009102,29.075268 l -0.214858,-0.410375 -0.482479,0.442104 c -0.644424,0.590499 -1.169114,0.84324 -1.764938,0.850164 -0.836412,0.0097 -1.134571,-0.386391 -1.084893,-1.441308 0.02167,-0.46019 0.0084,-0.535485 -0.08693,-0.494245 -0.404519,0.174935 -0.675127,0.247294 -0.9375,0.250678 -0.266239,0.0034 -0.318093,0.03546 -0.460774,0.284541 -0.294378,0.513916 -0.768115,0.977163 -1.240885,1.213409 -0.393366,0.196567 -0.542049,0.229526 -1.02907,0.228117 -0.643949,-0.0019 -1.044625,-0.146513 -1.371542,-0.495146 -0.25749,-0.274593 -0.440526,-0.71174 -0.455528,-1.087938 -0.0095,-0.237702 -0.0338,-0.282893 -0.126963,-0.235899 -0.06338,0.03197 -0.375218,0.05932 -0.692971,0.06077 l -0.577733,0.0026 -0.233043,0.321707 c -0.604473,0.83445 -1.342965,1.333146 -2.079959,1.404573 -0.357543,0.03465 -0.489398,0.01196 -0.769032,-0.132371 z m 7.137682,-0.92966 c 0.15135,-0.09687 0.367513,-0.297183 0.480363,-0.445136 l 0.205181,-0.269006 -0.161613,-0.113199 c -0.223083,-0.156253 -0.202343,-0.428083 0.05502,-0.72121 0.119152,-0.135706 0.271027,-0.429881 0.3375,-0.653723 0.261011,-0.878916 0.09313,-1.317259 -0.504512,-1.317259 -0.426158,0 -0.661343,0.168774 -1.072957,0.769976 -0.423901,0.619146 -0.639362,1.217146 -0.682839,1.895175 -0.03387,0.528232 -0.02325,0.580582 0.162525,0.801369 0.302808,0.359867 0.675757,0.376603 1.181327,0.05301 z m 8.586858,-1.799061 c 0.620022,-0.30027 1.103301,-0.931795 0.97297,-1.27143 -0.06315,-0.164569 -0.384246,-0.265414 -0.666228,-0.209242 -0.357559,0.07123 -0.979519,0.738157 -1.17458,1.259502 C 35.170516,27.117156 35.1,27.325549 35.1,27.349899 c 0,0.09217 0.653133,-0.06206 1.02454,-0.241927 z m 5.0089,-3.495763 c -0.02842,-0.08954 -0.166728,-0.34266 -0.307358,-0.5625 C 40.685452,22.829869 40.589052,22.65 40.61186,22.65 c 0.02281,0 0.318192,0.139133 0.656407,0.309184 0.679116,0.341454 1.185291,0.537258 1.242073,0.480475 0.04948,-0.04948 -0.368322,-0.64743 -0.483159,-0.691497 -0.04982,-0.01912 -0.110367,-0.08631 -0.134547,-0.149326 -0.03799,-0.099 0.03512,-0.108351 0.537951,-0.06883 0.383495,0.03014 0.911026,6e-4 1.547114,-0.08658 l 0.965198,-0.132313 -0.318806,-0.411807 c -0.175343,-0.226493 -0.575141,-0.673367 -0.888439,-0.993055 -0.514054,-0.524537 -0.55151,-0.582116 -0.383893,-0.590132 0.102158,-0.0049 0.211053,-0.0049 0.241991,0 0.03094,0.0049 0.05589,-0.01643 0.05545,-0.04737 -0.0013,-0.0912 -1.041206,-0.652406 -1.63967,-0.88488 l -0.552967,-0.2148 0.365467,-0.12294 0.365467,-0.122939 -0.493643,-0.0866 C 41.422352,18.788968 41.027242,18.75 40.815833,18.75 c -0.476165,0 -2.278817,0.455099 -2.891174,0.729909 l -0.45422,0.203842 0.296031,0.06401 c 0.162816,0.0352 0.570334,0.130009 0.905595,0.210678 l 0.609566,0.146669 0.566158,-0.190053 c 0.363943,-0.122171 0.722162,-0.188165 1.002935,-0.184769 l 0.436776,0.0053 -0.270786,0.09967 c -0.282398,0.10394 -0.814178,0.42395 -0.815786,0.490917 -5.25e-4,0.02126 0.308726,0.117972 0.687191,0.214919 1.596376,0.408925 2.748115,0.886132 3.292708,1.364287 L 44.4375,22.130741 44.125636,21.979869 C 43.384517,21.621335 41.853363,21.153604 40.296529,20.81017 l -0.16597,-0.03661 0.161526,0.448926 c 0.08884,0.246909 0.137861,0.47259 0.108938,0.501514 -0.0763,0.0763 -0.48337,-0.333834 -0.705784,-0.711102 -0.225975,-0.383309 -0.327377,-0.429662 -1.097897,-0.501865 l -0.584371,-0.05476 0.197152,0.38906 c 0.407823,0.8048 0.380834,0.821274 -0.283368,0.172963 L 37.293328,20.4 H 36.871664 C 36.639749,20.4 36.45,20.418 36.45,20.43999 c 0,0.108014 0.429744,0.874449 0.719479,1.283169 0.294792,0.415853 1.410691,1.526838 1.533591,1.526838 0.02748,0 0.0043,-0.176105 -0.05156,-0.391345 C 38.59568,22.643416 38.55,22.430822 38.55,22.386226 c 0,-0.0446 0.194062,0.107214 0.43125,0.337358 0.442705,0.429558 0.870735,0.673704 1.59375,0.909068 0.555647,0.18088 0.621571,0.178466 0.55844,-0.02044 z m -6.688267,-3.281835 c 0.21261,-0.0757 -0.487499,-0.793572 -1.24869,-1.280374 -0.354755,-0.226875 -0.64534,-0.433691 -0.645746,-0.459592 -7.72e-4,-0.04948 0.941718,0.130625 1.057277,0.202045 0.03684,0.02277 0.06699,0.0035 0.06699,-0.04292 0,-0.04638 -0.177188,-0.25991 -0.39375,-0.474522 -0.288338,-0.285741 -0.559227,-0.460118 -1.011863,-0.651359 -0.573958,-0.242499 -0.752554,-0.370266 -0.525637,-0.376039 0.05248,-0.0013 0.02771,-0.05428 -0.05625,-0.120257 l -0.15,-0.117872 0.15,0.04099 c 0.0825,0.02254 0.313834,0.06414 0.514074,0.09245 0.341407,0.04826 0.359335,0.0426 0.28795,-0.09078 -0.100742,-0.188238 -0.668768,-0.903657 -1.369395,-1.724731 -0.590225,-0.691692 -0.936114,-1.168425 -1.149008,-1.583658 -0.170182,-0.331925 -0.09781,-0.308125 0.114026,0.0375 0.09481,0.154688 0.730375,0.856928 1.412367,1.560536 0.681993,0.703606 1.440104,1.509593 1.684693,1.791082 0.428045,0.49262 0.44724,0.505105 0.512302,0.333214 0.03718,-0.09822 0.05537,-0.405775 0.04042,-0.683456 -0.04821,-0.895595 0.21271,-0.232564 0.283028,0.719218 0.06586,0.891438 0.283912,1.503125 0.690959,1.938291 0.185136,0.197926 0.378729,0.359865 0.430207,0.359865 0.309902,0 0.111094,-1.891817 -0.340577,-3.240863 -0.302098,-0.902302 -0.741953,-1.76537 -0.829347,-1.627317 -0.0368,0.05812 -0.06742,0.192042 -0.06805,0.297595 -6e-4,0.105554 -0.04663,0.254113 -0.102214,0.330131 -0.09419,0.128818 -0.11671,0.115768 -0.331122,-0.191915 C 33.341281,15.186059 33.040823,14.849098 32.800128,14.61883 32.367439,14.204885 31.725,13.682405 31.725,13.744457 c 0,0.01763 0.0675,0.228252 0.15,0.468043 0.0825,0.239791 0.15,0.45108 0.15,0.469533 0,0.01845 -0.264472,-0.214644 -0.587715,-0.517992 C 30.949379,13.706166 29.729668,12.9 29.524817,12.9 c -0.165289,0 0.09984,1.458979 0.41252,2.270071 0.123522,0.320415 0.337745,0.750727 0.476052,0.95625 0.288911,0.42932 0.246593,0.454278 -0.394639,0.232755 -0.261118,-0.09021 -0.39375,-0.1076 -0.39375,-0.05164 0,0.04641 0.196673,0.387166 0.437052,0.757225 0.409693,0.630716 0.795313,1.049644 1.325448,1.439935 l 0.225,0.165647 -0.675,0.0051 -0.675,0.0051 0.217604,0.177924 c 0.398804,0.326082 1.282701,0.789067 2.289188,1.199079 1.000875,0.407725 1.204344,0.440867 1.675881,0.272977 z m 2.065192,-0.818214 c 0.685426,-0.461898 1.35606,-0.811114 2.039635,-1.062088 0.828559,-0.304205 1.128549,-0.485006 1.749509,-1.054414 0.633014,-0.58046 1.557463,-1.928651 1.737902,-2.534507 0.04973,-0.166963 0.03915,-0.173433 -0.198695,-0.121565 -0.138169,0.03013 -0.424584,0.131254 -0.636478,0.224718 l -0.385263,0.169934 0.40113,-0.599293 c 0.392714,-0.586719 0.927573,-1.810272 1.071656,-2.451537 l 0.07251,-0.322714 -0.274884,0.05067 c -0.376974,0.06948 -1.282093,0.436952 -1.675381,0.680187 -0.178478,0.110382 -0.471425,0.340251 -0.650993,0.510822 l -0.32649,0.31013 0.05084,-0.2625 c 0.02796,-0.144375 0.06847,-0.324702 0.09001,-0.400727 0.02646,-0.09339 -0.115254,-0.01685 -0.436849,0.235929 -0.50821,0.399459 -0.744014,0.667637 -1.263367,1.436808 -0.17993,0.26648 -0.338203,0.451338 -0.351717,0.410796 -0.01351,-0.04054 -0.04963,-0.266468 -0.08025,-0.502058 l -0.05568,-0.428344 -0.375,0.451602 c -0.499529,0.601571 -0.916477,1.295849 -1.055174,1.757018 -0.0876,0.291259 -0.101762,0.567461 -0.06258,1.220226 0.02785,0.464062 0.07137,0.843419 0.0967,0.843016 0.02533,-3.75e-4 0.116007,-0.122666 0.201506,-0.271693 l 0.15545,-0.270959 -0.03379,0.477943 c -0.0334,0.472418 -0.03207,0.476403 0.11511,0.344743 0.0819,-0.07326 0.37221,-0.465422 0.645141,-0.87147 0.487914,-0.725885 0.892086,-1.629536 0.993077,-2.22033 0.08376,-0.490005 0.12106,-0.169358 0.04502,0.387076 -0.03855,0.282108 -0.06346,0.520764 -0.05535,0.530346 0.0081,0.0096 0.16092,-0.189867 0.339591,-0.443222 0.707749,-1.003588 2.622654,-3.167717 2.633722,-2.9765 0.0045,0.07707 0.01532,0.07897 0.04404,0.0077 0.02096,-0.05204 0.110973,-0.133602 0.200022,-0.181259 0.140991,-0.07546 0.1336,-0.0487 -0.05721,0.20711 -0.120516,0.161568 -0.456412,0.580634 -0.746435,0.931259 -0.290024,0.350625 -0.666325,0.80625 -0.836225,1.0125 -0.511811,0.62131 -1.092534,1.5375 -0.974538,1.5375 0.01697,0 0.144751,-0.0672 0.283951,-0.149328 0.257869,-0.152146 1.062236,-0.451126 1.210974,-0.450114 0.0451,3e-4 -0.187991,0.154265 -0.517991,0.34213 -1.056908,0.601684 -1.518036,0.933084 -1.797547,1.291849 -0.150106,0.192669 -0.245816,0.356578 -0.212687,0.364243 0.03313,0.0077 0.188386,0.0354 0.345016,0.06164 l 0.284783,0.0477 -0.359783,0.191079 c -0.746134,0.396268 -1.531838,1.113711 -1.814706,1.657049 -0.119349,0.229246 -0.06784,0.214907 0.427789,-0.11909 z"
   />
</svg>
