<?xml version="1.0" encoding="UTF-8" standalone="no"?>

<svg
   id="favicon"
   width="32"
   height="32"
   viewBox="0 0 32 32"
   xmlns="http://www.w3.org/2000/svg"
>
   <rect
       style="display:inline;fill:#e6ffec;fill-opacity:1;fill-rule:evenodd;stroke-width:10"
       id="rect17082"
       width="32"
       height="32"
       x="0"
       y="0"
       ry="6"
   />
   <path
       style="display:inline;fill:#5baa61;fill-opacity:1;fill-rule:evenodd;stroke-width:12.4277"
       d="m 7.2487688,3.8098291 6.7239962,2.274785 2.602622,3.0040543 c 0,0 0.05353,2.2145696 0.12712,2.1409736 0.0736,-0.0736 3.244913,-2.930458 3.244913,-2.930458 l 6.048253,-0.8563896 1.592349,0.5887679 -1.601233,4.0179097 -3.264341,3.150799 -6.500297,0.02839 -1.873447,4.882318 -3.850976,1.353045 -6.093317,-0.302433 2.0720273,-4.716879 3.008871,-2.455554 -2.4127741,-4.6079245 z"
   />
    <path
       style="display:inline;fill:#0a7715;fill-opacity:1;stroke-width:0.0388365"
       d="m 16.785722,28.693195 c -0.125561,-0.06813 -0.223798,-0.241168 -0.223798,-0.394208 0,-0.06012 0.04444,-0.187702 0.09876,-0.283492 0.532951,-0.939859 0.872469,-1.966298 1.056406,-3.193753 0.0838,-0.559247 0.09409,-2.445384 0.01668,-3.058326 -0.163527,-1.294828 -0.385909,-2.196842 -0.904387,-3.668312 -0.208602,-0.592025 -0.541607,-1.379234 -0.6242,-1.475585 -0.0174,-0.0203 -0.03163,0.04751 -0.03163,0.15067 0,0.24439 -0.171006,1.002628 -0.317317,1.406978 -0.430913,1.190887 -1.478248,2.495399 -2.614762,3.256826 -0.306871,0.205595 -0.311166,0.207077 -0.35658,0.123121 -0.02528,-0.04674 -0.07619,-0.200813 -0.113141,-0.34239 l -0.06717,-0.257415 -0.467265,0.308736 c -0.74284,0.490815 -1.430905,0.789356 -2.209646,0.958732 l -0.3398187,0.07391 V 21.979032 21.659371 L 9.1926871,21.785059 C 8.406319,21.984665 7.8713878,22.049254 6.9887228,22.051171 6.5563457,22.052111 6.0484247,22.030492 5.8430456,22.002393 5.069014,21.896521 4.1342913,21.646231 3.9691837,21.50062 c -0.1011092,-0.08917 -0.085908,-0.349468 0.050019,-0.856527 0.2958104,-1.103484 0.8811353,-2.2159 1.70712,-3.244399 0.1520074,-0.189276 0.2710385,-0.347967 0.2645136,-0.352646 -0.00652,-0.0047 -0.1258069,-0.03854 -0.265072,-0.07525 C 5.341266,16.870451 5.3414257,16.870712 5.5129319,16.630858 6.2595624,15.586692 6.9772678,14.946246 8.4403907,14.018535 L 8.6104525,13.910703 8.2870879,13.58565 c -0.1778505,-0.178772 -0.3155461,-0.332231 -0.30599,-0.341012 0.00956,-0.0088 0.1134946,-0.07356 0.2309751,-0.14395 0.1174802,-0.07039 0.2213396,-0.134105 0.2307983,-0.141587 0.00944,-0.0075 -0.080021,-0.113639 -0.1988432,-0.2359 C 7.3967147,11.85136 6.6943844,10.555911 6.3704625,9.2674058 6.3181568,9.059344 6.2636018,8.8128508 6.2492279,8.7196457 L 6.2230939,8.5501793 6.537945,8.5780543 c 0.1731678,0.015336 0.3148508,0.012887 0.3148508,-0.00547 0,-0.018306 -0.035056,-0.1555722 -0.077901,-0.3050248 C 6.6630801,7.8775768 6.5120372,7.0867084 6.4655444,6.6478322 6.3543841,5.598518 6.4620103,4.2087933 6.7048119,3.5582459 6.8465431,3.1785013 6.992119,3.1652317 8.0798134,3.4329123 c 0.8712347,0.2144098 1.4484833,0.4202084 2.1711766,0.77406 0.570223,0.279198 1.341133,0.7414748 1.372224,0.8228561 0.03727,0.097568 0.08427,0.00301 0.12808,-0.2577356 0.02696,-0.1603912 0.06151,-0.3118448 0.07678,-0.3365629 0.03846,-0.062234 0.521158,0.117418 0.908379,0.3380858 0.445119,0.2536622 0.844869,0.5666158 1.284957,1.0059597 0.378371,0.3777306 0.954625,1.1014428 1.006061,1.2635006 0.03607,0.1136462 0.06303,0.099182 0.204747,-0.1098582 0.06967,-0.1027546 0.170272,-0.2277964 0.223572,-0.2778695 l 0.09691,-0.091042 0.119244,0.1138165 c 0.21826,0.2083362 0.53393,0.6533941 0.714282,1.0070557 0.325838,0.6389488 0.535626,1.4767618 0.588734,2.3511725 l 0.0255,0.41982 0.186691,-0.307376 C 17.51446,9.6098999 17.801572,9.251309 18.304698,8.7530185 18.964657,8.0994033 19.585636,7.6844708 20.314445,7.4101227 l 0.237805,-0.089518 0.04376,0.2178915 c 0.02407,0.1198401 0.04376,0.2586678 0.04376,0.3085056 0,0.049837 0.0055,0.090614 0.01218,0.090614 0.0067,0 0.187209,-0.086814 0.40114,-0.1929185 1.842956,-0.9140749 4.066938,-1.0853443 6.382038,-0.4914827 0.592202,0.1519094 0.661255,0.2008143 0.661255,0.4683106 0,0.2609033 -0.14394,0.9895161 -0.291942,1.4777887 -0.490041,1.6166921 -1.423014,3.0264231 -2.634814,3.9812321 -0.20332,0.1602 -0.348878,0.297909 -0.323464,0.306019 0.02541,0.0081 0.138295,0.0576 0.250848,0.109973 l 0.20464,0.09523 -0.126967,0.161602 c -0.875149,1.11388 -2.433474,1.870259 -4.301893,2.088053 -0.50244,0.05857 -1.710498,0.05866 -2.233099,1.55e-4 -0.213601,-0.02391 -0.698733,-0.105461 -1.078072,-0.181229 -0.379339,-0.07577 -0.751423,-0.13235 -0.826854,-0.125732 l -0.137147,0.01206 0.279913,0.485456 c 0.652318,1.131322 1.272133,2.810335 1.5627,4.23318 0.242966,1.189757 0.274119,1.515585 0.274776,2.873903 6.73e-4,1.391019 -0.04378,1.828736 -0.286006,2.815647 -0.203449,0.82895 -0.604915,1.835831 -0.949015,2.380144 -0.182789,0.289142 -0.452414,0.389419 -0.694251,0.258199 z M 8.0620228,21.085523 c 0.7777205,-0.103535 1.4442906,-0.302857 2.1304382,-0.637054 0.203072,-0.09891 0.383927,-0.186289 0.401902,-0.194177 0.01797,-0.0078 0.02671,0.179703 0.01943,0.416869 -0.01525,0.495875 -0.04772,0.47326 0.391051,0.272395 0.567386,-0.259744 1.23389,-0.72878 1.780812,-1.253202 0.176534,-0.169273 0.32985,-0.29889 0.340702,-0.288039 0.01081,0.01081 0.07654,0.189196 0.145985,0.396324 l 0.126257,0.376594 0.359284,-0.361295 c 0.789246,-0.793664 1.254246,-1.666022 1.465715,-2.749741 0.08417,-0.431392 0.127393,-1.708806 0.0578,-1.708806 -0.02691,0 -0.03834,-0.02575 -0.02587,-0.05825 0.0123,-0.03204 0.01094,-0.05825 -0.003,-0.05825 -0.05646,0 -2.408371,1.202879 -3.059741,1.564896 -0.384481,0.213687 -1.12723,0.650664 -1.650552,0.971058 -1.7171664,1.051308 -1.9949661,1.218652 -2.4467007,1.473863 -0.245641,0.138776 -0.5934977,0.326001 -0.7730144,0.416053 L 6.996135,19.828496 7.1283473,19.660628 c 0.2355679,-0.2991 1.2082199,-1.27671 1.6468367,-1.655232 0.5773591,-0.498256 1.0746356,-0.871919 1.73682,-1.305081 1.17885,-0.771132 2.344588,-1.358447 3.754712,-1.891677 0.328971,-0.124397 0.612856,-0.240904 0.630854,-0.258903 0.018,-0.018 -0.09975,-0.180507 -0.261646,-0.361131 C 13.431621,12.84506 10.754252,9.1387743 9.5617906,7.164479 L 9.2941989,6.7214401 9.5201466,6.9174678 c 0.6312284,0.5476411 2.1228564,2.1622626 3.0054434,3.2532602 0.612934,0.75767 1.483187,1.971583 2.33118,3.251756 l 0.533272,0.805056 0.114968,-0.319599 c 0.324242,-0.901382 0.523024,-1.967524 0.576647,-3.092769 0.02965,-0.622183 -0.03027,-1.2995057 -0.160335,-1.8124038 -0.09353,-0.3688487 -0.317208,-0.9486305 -0.36597,-0.9486305 -0.01562,0 -0.148126,0.1747643 -0.29447,0.3883651 -0.146343,0.2136014 -0.276117,0.3883471 -0.288386,0.3883234 -0.0123,-2.36e-5 -0.08179,-0.1354667 -0.154493,-0.3009836 -0.367667,-0.8371004 -0.864691,-1.5655632 -1.465655,-2.1481773 -0.398105,-0.3859492 -0.915815,-0.7674969 -0.940581,-0.6932 -0.0078,0.023462 -0.06979,0.2241074 -0.137709,0.4458778 L 12.150569,6.5375621 11.725073,6.2053964 C 10.47623,5.2304818 9.4617937,4.7184838 8.0761452,4.3637386 L 7.4935975,4.2145982 7.4658042,4.3166158 c -0.1498561,0.550061 -0.1378987,2.1976082 0.022053,3.0384525 0.1072485,0.5637952 0.3353801,1.323187 0.551312,1.8351815 0.073737,0.1748376 0.1340679,0.324846 0.1340679,0.3333528 0,0.00845 -0.1835025,0.00783 -0.4077834,-0.00162 -0.2242808,-0.00945 -0.4077834,-0.015423 -0.4077834,-0.013397 0,0.00199 0.051171,0.1365666 0.1137145,0.298989 0.2534884,0.6582984 0.6314985,1.3398504 1.0630058,1.9165974 0.3525842,0.47126 1.1082794,1.19439 1.6409054,1.570196 0.255233,0.180085 0.520332,0.379614 0.58911,0.443398 l 0.12505,0.115975 -0.493996,0.208366 C 9.0697524,14.62129 7.9737091,15.311036 7.1202432,16.123219 l -0.3508047,0.333837 0.4009162,0.09476 c 0.2205041,0.05212 0.4076864,0.100838 0.4159613,0.108257 0.00828,0.0075 -0.1694492,0.206021 -0.3949413,0.441341 -0.8099254,0.845223 -1.4831813,1.77761 -1.8940706,2.623088 -0.2812624,0.578746 -0.4843387,1.147945 -0.4230685,1.185812 0.053029,0.03277 0.6939615,0.147068 1.0659019,0.190077 0.4581765,0.05298 1.6763634,0.04444 2.1218859,-0.01486 z M 21.028123,15.024807 c 0.791447,-0.123892 1.460784,-0.323927 2.038917,-0.609321 0.305997,-0.151056 0.796149,-0.4574 0.796149,-0.497593 0,-0.01131 -0.185415,-0.112794 -0.412033,-0.225499 L 23.039123,13.487476 23.53063,13.200643 C 25.035458,12.322459 25.945368,11.367677 26.60322,9.9765333 26.875923,9.3998551 27.20165,8.39676 27.202857,8.1299151 27.203051,8.082936 27.090536,8.0509583 26.688546,7.9837769 25.820907,7.8387714 25.410979,7.8103737 24.503991,7.8324422 c -0.714202,0.017378 -0.931338,0.037089 -1.323257,0.1201285 -1.093925,0.2317759 -2.103683,0.6902197 -2.909331,1.320875 -0.149195,0.116783 -0.277473,0.2061318 -0.285064,0.1985422 -0.0076,-0.00758 -0.04668,-0.1835805 -0.08687,-0.3910893 -0.04019,-0.20751 -0.07946,-0.3836836 -0.08728,-0.3914969 -0.02752,-0.027515 -0.570847,0.3774101 -0.823362,0.6136256 -0.856508,0.8012217 -1.70454,2.2720037 -2.351772,4.0787887 -0.08404,0.234613 -0.152805,0.432477 -0.152805,0.439696 0,0.0072 0.218562,-0.151243 0.485694,-0.352139 1.544345,-1.161425 3.910228,-2.505628 5.868092,-3.33402 0.610963,-0.2585059 2.244919,-0.8360875 2.170543,-0.7672593 -0.09722,0.089964 -1.232954,0.8563383 -1.863867,1.2577003 -0.384481,0.244591 -1.572878,0.968989 -2.640883,1.609776 -1.068004,0.640785 -2.390194,1.442608 -2.938199,1.781829 -0.979329,0.606215 -0.995005,0.617952 -0.916425,0.686105 0.04397,0.03814 0.115689,0.06933 0.159362,0.06933 0.04367,0 0.458096,0.06134 0.920933,0.136329 0.462836,0.07499 0.99678,0.152546 1.186541,0.172366 0.481307,0.05027 1.624761,0.01956 2.112081,-0.05673 z"
   />
</svg>
